<svg xmlns="http://www.w3.org/2000/svg" xmlns:xlink="http://www.w3.org/1999/xlink" viewBox="0,0,256,256" width="48px" height="48px"><g fill="#ffffff" fill-rule="nonzero" stroke="none" stroke-width="1" stroke-linecap="butt" stroke-linejoin="miter" stroke-miterlimit="10" stroke-dasharray="" stroke-dashoffset="0" font-family="none" font-weight="none" font-size="none" text-anchor="none" style="mix-blend-mode: normal"><g transform="scale(5.33333,5.33333)"><path d="M25,2c-3.29586,0 -6,2.70413 -6,6h-6.5c-1.91496,0 -3.5,1.58505 -3.5,3.5v6.5c-3.29587,0 -6,2.70414 -6,6c0,3.29586 2.70413,6 6,6v6.5c0,1.91495 1.58504,3.5 3.5,3.5h6.5c0,3.29586 2.70414,6 6,6c3.29586,0 6,-2.70414 6,-6h6.5c1.91495,0 3.5,-1.58505 3.5,-3.5v-8c-0.00008,-0.82839 -0.67161,-1.49992 -1.5,-1.5h-2.5c-1.67413,0 -3,-1.32587 -3,-3c0,-1.67413 1.32587,-3 3,-3h2.5c0.82839,-0.00008 1.49992,-0.67161 1.5,-1.5v-8c0,-1.91495 -1.58505,-3.5 -3.5,-3.5h-6.5c0,-3.29587 -2.70414,-6 -6,-6zM25,5c1.67413,0 3,1.32587 3,3v1.5c0.00008,0.82839 0.67161,1.49992 1.5,1.5h8c0.29505,0 0.5,0.20496 0.5,0.5v6.5h-1c-3.29586,0 -6,2.70414 -6,6c0,3.29586 2.70414,6 6,6h1v6.5c0,0.29505 -0.20495,0.5 -0.5,0.5h-8c-0.82839,0.00008 -1.49992,0.67161 -1.5,1.5v1.5c0,1.67413 -1.32587,3 -3,3c-1.67413,0 -3,-1.32587 -3,-3v-1.5c-0.00008,-0.82839 -0.67161,-1.49992 -1.5,-1.5h-8c-0.29504,0 -0.5,-0.20495 -0.5,-0.5v-8c-0.00008,-0.82839 -0.67161,-1.49992 -1.5,-1.5h-1.5c-1.67413,0 -3,-1.32587 -3,-3c0,-1.67413 1.32587,-3 3,-3h1.5c0.82839,-0.00008 1.49992,-0.67161 1.5,-1.5v-8c0,-0.29504 0.20496,-0.5 0.5,-0.5h8c0.82839,-0.00008 1.49992,-0.67161 1.5,-1.5v-1.5c0,-1.67413 1.32587,-3 3,-3z"></path></g></g></svg>